HIERARCHY
ROOT character_A_root
{
	OFFSET 0.000000 0.000000 0.000000
	CHANNELS 6 Xposition Yposition Zposition Xrotation Yrotation Zrotation
	JOINT character_A_pelvis
	{
		OFFSET 0.000000 0.000000 0.000000
		CHANNELS 3 Xrotation Yrotation Zrotation
		JOINT character_A_spine
		{
			OFFSET -0.006400 0.538076 0.000000
			CHANNELS 3 Xrotation Yrotation Zrotation
			JOINT character_A_head
			{
				OFFSET 0.012744 0.245383 0.000000
				CHANNELS 3 Xrotation Yrotation Zrotation
				JOINT character_A_nose
				{
					OFFSET -0.008787 -0.131621 -0.002605
					CHANNELS 3 Xrotation Yrotation Zrotation
					End Site
					{
						OFFSET 0.000000 0.050000 0.000000
					}
				}
			}
			JOINT character_A_left_shoulder
			{
				OFFSET 0.108057 -0.069769 0.094471
				CHANNELS 3 Xrotation Yrotation Zrotation
				JOINT character_A_left_elbow
				{
					OFFSET 0.031628 -0.239596 -0.139088
					CHANNELS 3 Xrotation Yrotation Zrotation
					JOINT character_A_left_wrist
					{
						OFFSET 0.010597 -0.101834 -0.186326
						CHANNELS 3 Xrotation Yrotation Zrotation
						End Site
						{
							OFFSET 0.000000 0.050000 0.000000
						}
					}
				}
			}
			JOINT character_A_right_shoulder
			{
				OFFSET -0.114595 -0.059038 0.102763
				CHANNELS 3 Xrotation Yrotation Zrotation
				JOINT character_A_right_elbow
				{
					OFFSET -0.054650 -0.246550 -0.079184
					CHANNELS 3 Xrotation Yrotation Zrotation
					JOINT character_A_right_wrist
					{
						OFFSET -0.039546 -0.120930 -0.167408
						CHANNELS 3 Xrotation Yrotation Zrotation
						End Site
						{
							OFFSET 0.000000 0.050000 0.000000
						}
					}
				}
			}
		}
		JOINT character_A_left_hip
		{
			OFFSET 0.064495 -0.018473 0.101805
			CHANNELS 3 Xrotation Yrotation Zrotation
			JOINT character_A_left_knee
			{
				OFFSET -0.013415 -0.404926 0.097567
				CHANNELS 3 Xrotation Yrotation Zrotation
				JOINT character_A_left_ankle
				{
					OFFSET -0.033827 -0.357830 0.207383
					CHANNELS 3 Xrotation Yrotation Zrotation
					JOINT character_A_left_big_toe
					{
						OFFSET -0.008355 -0.113888 0.066374
						CHANNELS 3 Xrotation Yrotation Zrotation
						End Site
						{
							OFFSET 0.000000 0.050000 0.000000
						}
					}
					JOINT character_A_left_small_toe
					{
						OFFSET 0.019861 -0.105049 0.045203
						CHANNELS 3 Xrotation Yrotation Zrotation
						End Site
						{
							OFFSET 0.000000 0.050000 0.000000
						}
					}
					JOINT character_A_left_heel
					{
						OFFSET -0.015740 -0.054451 0.041248
						CHANNELS 3 Xrotation Yrotation Zrotation
						End Site
						{
							OFFSET 0.000000 0.050000 0.000000
						}
					}
				}
			}
		}
		JOINT character_A_right_hip
		{
			OFFSET -0.060818 -0.017714 0.289385
			CHANNELS 3 Xrotation Yrotation Zrotation
			JOINT character_A_right_knee
			{
				OFFSET 0.024497 -0.400024 0.102706
				CHANNELS 3 Xrotation Yrotation Zrotation
				JOINT character_A_right_ankle
				{
					OFFSET 0.016037 -0.354408 0.210815
					CHANNELS 3 Xrotation Yrotation Zrotation
					JOINT character_A_right_big_toe
					{
						OFFSET -0.000881 -0.112993 0.055364
						CHANNELS 3 Xrotation Yrotation Zrotation
						End Site
						{
							OFFSET 0.000000 0.050000 0.000000
						}
					}
					JOINT character_A_right_small_toe
					{
						OFFSET -0.021559 -0.104872 0.042888
						CHANNELS 3 Xrotation Yrotation Zrotation
						End Site
						{
							OFFSET 0.000000 0.050000 0.000000
						}
					}
					JOINT character_A_right_heel
					{
						OFFSET 0.008712 -0.057795 0.038858
						CHANNELS 3 Xrotation Yrotation Zrotation
						End Site
						{
							OFFSET 0.000000 0.050000 0.000000
						}
					}
				}
			}
		}
	}
}
MOTION
Frames: 10
Frame Time: 0.03333333
1.043913 -0.086994 0.241278 0.000000 0.000000 0.000000 0.117414 -6.354675 -0.114507 -11.329962 13.353417 2.538529 34.090748 -9.382828 -3.845674 -0.000000 0.000000 0.000000 21.922946 -7.193595 4.852117 -15.925393 -7.735101 0.930726 0.000000 0.000000 0.000000 -13.583268 -3.159515 1.307317 46.446776 12.590521 -24.353390 0.000000 0.000000 -0.000000 -9.455943 5.309971 -6.752952 5.598313 14.454370 30.451421 126.195032 0.244706 -131.078922 0.000000 0.000000 -0.000000 0.000000 0.000000 -0.000000 0.000000 0.000000 -0.000000 -20.737127 4.104598 -5.844109 13.440903 6.457734 13.348620 16.275449 -0.202261 -38.271543 -0.000000 0.000000 -0.000000 -0.000000 0.000000 -0.000000 -0.000000 0.000000 -0.000000
1.048882 -0.084214 0.202523 0.000000 0.000000 0.000000 0.913485 -4.642689 0.215429 -10.985581 13.694297 1.036588 34.291285 -10.415914 -0.743605 -0.000000 0.000000 -0.000000 23.045985 -7.181964 3.867505 -14.574867 -6.533868 1.811389 -0.000000 0.000000 0.000000 -11.402769 -7.523643 4.724321 39.369256 8.337436 -22.055940 -0.000000 0.000000 0.000000 -11.267108 3.780314 -7.100935 4.721694 13.271894 29.256295 127.874776 -3.471194 -138.524111 0.000000 0.000000 -0.000000 0.000000 0.000000 -0.000000 0.000000 0.000000 -0.000000 -21.962035 2.318112 -10.780210 12.802436 8.306789 18.705658 15.918136 -2.804596 -38.536848 0.000000 0.000000 -0.000000 0.000000 0.000000 -0.000000 0.000000 0.000000 -0.000000
1.053474 -0.081602 0.175744 0.000000 0.000000 0.000000 1.678275 -3.377758 0.537197 -10.748229 14.239801 -0.385320 35.213736 -11.323122 1.766734 0.000000 0.000000 -0.000000 18.279434 -8.079989 1.912170 -3.787028 0.113264 0.695858 0.000000 0.000000 -0.000000 -9.975683 -11.128483 8.033667 32.372632 4.734885 -19.656642 0.000000 0.000000 -0.000000 -12.972360 2.727307 -7.328576 4.076065 12.123732 27.773578 127.254110 -3.316034 -140.202446 0.000000 0.000000 -0.000000 0.000000 0.000000 -0.000000 0.000000 0.000000 -0.000000 -23.094536 0.981519 -15.992261 12.188911 10.606122 25.011095 14.664365 -5.788932 -38.391220 0.000000 0.000000 0.000000 0.000000 0.000000 0.000000 0.000000 0.000000 0.000000
1.054073 -0.074234 0.153025 0.000000 0.000000 0.000000 1.983159 -2.689184 0.685023 -10.623700 14.422348 -1.658489 36.256037 -11.440605 3.248859 0.000000 0.000000 0.000000 11.800206 -9.010535 0.576658 7.923577 8.958072 -3.055793 0.000000 0.000000 -0.000000 -11.140868 -13.320953 11.231109 35.468052 1.152347 -20.826778 0.000000 0.000000 0.000000 -14.347761 2.394492 -6.041304 3.899840 10.702409 24.761487 134.024855 -3.231374 -141.865945 0.000000 0.000000 0.000000 0.000000 0.000000 0.000000 0.000000 0.000000 0.000000 -23.815754 0.248540 -19.500462 12.968168 12.690695 29.045306 13.375955 -7.233852 -36.952678 0.000000 0.000000 0.000000 0.000000 0.000000 0.000000 0.000000 0.000000 0.000000
1.056959 -0.063040 0.125677 0.000000 0.000000 0.000000 1.569300 -5.717394 0.995449 -10.605484 18.195652 -2.464148 36.562005 -11.381584 4.478486 -0.000000 0.000000 -0.000000 6.853767 -10.879702 1.448119 15.895889 17.354538 -9.196355 0.000000 0.000000 0.000000 -14.421625 -14.758090 13.149742 41.082082 0.543716 -23.621406 -0.000000 0.000000 -0.000000 -14.590715 5.179007 -7.833024 5.839870 11.223639 26.235236 130.560685 -1.937466 -142.027116 -0.000000 0.000000 0.000000 -0.000000 0.000000 0.000000 -0.000000 0.000000 0.000000 -24.345621 3.405970 -15.367375 15.166211 11.369186 24.372121 16.001907 1.542453 -36.413224 -0.000000 0.000000 -0.000000 -0.000000 0.000000 -0.000000 -0.000000 0.000000 -0.000000
1.058974 -0.052869 0.101258 0.000000 0.000000 0.000000 1.168881 -8.498663 1.413339 -10.018416 21.197461 -3.810032 35.876922 -10.827685 5.435346 0.000000 0.000000 0.000000 4.091209 -11.800765 2.707925 20.480991 23.074821 -14.016251 0.000000 0.000000 -0.000000 -16.381206 -16.143595 15.785659 45.007537 -0.161470 -26.389065 0.000000 0.000000 0.000000 -14.268003 7.598532 -10.751652 7.485338 12.498628 29.109934 125.375564 0.653043 -141.244404 0.000000 0.000000 0.000000 0.000000 0.000000 0.000000 0.000000 0.000000 0.000000 -23.859483 6.359247 -10.148283 15.897710 9.017825 18.427198 18.874919 7.442764 -36.035940 -0.000000 0.000000 0.000000 -0.000000 0.000000 0.000000 -0.000000 0.000000 0.000000
1.061516 -0.043886 0.040277 0.000000 0.000000 0.000000 1.434675 -11.460873 1.759352 -10.485496 24.231492 -4.396656 34.555318 -10.647824 4.995545 -0.000000 0.000000 -0.000000 3.668188 -12.905226 4.902492 19.222399 26.409295 -17.288624 -0.000000 0.000000 -0.000000 -18.733592 -17.489744 18.070407 43.458257 0.398974 -27.484800 -0.000000 0.000000 0.000000 -14.284567 10.394333 -11.358828 10.709680 13.902300 29.862773 114.698297 3.746867 -137.994866 0.000000 0.000000 0.000000 0.000000 0.000000 0.000000 0.000000 0.000000 0.000000 -23.215899 9.375272 -6.413279 14.094037 6.654446 14.032332 19.101735 19.399857 -39.543818 -0.000000 0.000000 0.000000 -0.000000 0.000000 0.000000 -0.000000 0.000000 0.000000
1.062453 -0.044920 -0.059644 0.000000 0.000000 0.000000 1.943471 -13.221817 1.823971 -11.984857 25.264333 -3.850900 35.529897 -9.998718 4.117404 0.000000 0.000000 0.000000 4.370674 -13.334364 6.833265 13.610606 27.841835 -18.094415 0.000000 0.000000 -0.000000 -20.340694 -18.017539 20.037426 40.075993 0.628759 -27.492393 0.000000 0.000000 -0.000000 -14.367078 12.218885 -9.667210 11.037102 13.453366 28.311857 109.110078 5.187589 -140.430224 0.000000 0.000000 0.000000 0.000000 0.000000 0.000000 0.000000 0.000000 0.000000 -23.173511 11.148246 -3.689660 13.822174 5.054017 10.305515 17.408594 25.833747 -38.257172 0.000000 0.000000 -0.000000 0.000000 0.000000 -0.000000 0.000000 0.000000 -0.000000
1.063476 -0.049227 -0.170077 0.000000 0.000000 0.000000 2.417301 -14.727179 1.638480 -13.399558 26.147002 -2.888519 37.175334 -9.510290 3.670316 -0.000000 0.000000 0.000000 6.149951 -13.633834 8.805458 6.621098 29.052198 -18.345389 0.000000 0.000000 -0.000000 -20.765992 -18.299488 21.333165 37.041494 1.010215 -27.403307 0.000000 0.000000 -0.000000 -15.063692 13.890993 -6.858902 11.157743 12.428315 25.896227 107.113878 5.427177 -143.039272 0.000000 0.000000 -0.000000 0.000000 0.000000 -0.000000 0.000000 0.000000 -0.000000 -23.559730 12.522466 -1.578194 14.093819 4.067424 7.856588 15.454419 29.389881 -36.362172 -0.000000 0.000000 -0.000000 -0.000000 0.000000 -0.000000 -0.000000 0.000000 -0.000000
1.061795 -0.055542 -0.265332 0.000000 0.000000 0.000000 2.927498 -15.043019 1.326923 -14.501667 26.034975 -2.025866 38.840321 -9.296979 3.311110 -0.000000 0.000000 0.000000 5.810613 -14.602590 10.170401 0.189820 26.629488 -15.924830 0.000000 0.000000 0.000000 -21.263817 -18.867782 22.598735 32.165440 0.889026 -26.417737 0.000000 0.000000 -0.000000 -16.841993 14.432688 -3.714211 11.655339 11.103668 23.021886 106.536869 6.442840 -143.887394 -0.000000 0.000000 0.000000 -0.000000 0.000000 0.000000 -0.000000 0.000000 0.000000 -24.777757 12.638484 -0.076002 14.243088 3.511655 6.533065 15.131586 29.549910 -33.548441 0.000000 0.000000 -0.000000 0.000000 0.000000 -0.000000 0.000000 0.000000 -0.000000
